# xmcd
#
# Track frame offsets:
#	150
#	12535
#	25797
#	44547
#	59405
#	72327
#	84607
#	95072
#	112585
#	123392
#	138372
#	148895
#	156907
#	173450
#	192075
#	204207
#	216805
#	228360
#	244270
#	258550
#
# Disc length: 3630 seconds
#
# Revision: 1
# Processed by: cddbd v1.5.1PL0 Copyright (c) Steve Scherf et al.
# Submitted via: AudioConverter v4.5 Copyright (c) AC Productions Ltd
#
DISCID=1c0e2c14
DTITLE=Various Artist - The All Time Greatest Country Songs Disc 1
DYEAR=1998
DGENRE=Country
TTITLE0=Nillson - Everybody's Talkin
TTITLE1=Charlie Rich - Behind Closed Doors
TTITLE2=Juice Newton - Angel Of The Morning
TTITLE3=Bob Dylan - Lay Lady Lay
TTITLE4=Olivia Newton-John - If Not For You
TTITLE5=Patsy Cline - Crazy
TTITLE6=Jim Reeves - He'll Have To Go
TTITLE7=Linda Ronstadt - Blue Bayou
TTITLE8=Dolly, Loretta and Tammy - Silver Threads and Golden Needles
TTITLE9=Billy Jo Spears - I Will Survive
TTITLE10=The Everly Brothers - Bye Bye Love
TTITLE11=JD Loudermilk - Language Of Love
TTITLE12=Emmylou Harris - Love Hurts
TTITLE13=Kris Kristofferson - Me And Bobby McGee
TTITLE14=Glen Campbell - By The Time I Get To Phoenix
TTITLE15=Roy Orbison - Crying
TTITLE16=Crystal Gayle - Don't It Make My Brown Eyes Blue
TTITLE17=Willie Nelson - Always On My Mind
TTITLE18=Roseanne Cash - Tennessee Flat-Top Box
TTITLE19=The Highwaymen - Highwayman
EXTD=
EXTT0=
EXTT1=
EXTT2=
EXTT3=
EXTT4=
EXTT5=
EXTT6=
EXTT7=
EXTT8=
EXTT9=
EXTT10=
EXTT11=
EXTT12=
EXTT13=
EXTT14=
EXTT15=
EXTT16=
EXTT17=
EXTT18=
EXTT19=
PLAYORDER=
